<svg width="6202" height="697" viewBox="0 0 6202 697" fill="none" xmlns="http://www.w3.org/2000/svg">
<path d="M3035.12 695.371C3038.16 548.822 2966.8 401.791 2837.31 287.784C2800.47 255.349 2757.22 224.62 2702.49 210.116C2544.37 168.214 2374.57 256.109 2241.02 305.747C2079.85 365.645 1920.47 428.486 1752.74 478.804C1658.58 507.053 1548.05 530.81 1457.41 496.584C1365.62 461.922 1331.17 382.501 1293.62 313.285C1249.86 232.63 1189.37 154.803 1100.16 96.3083C1010.96 37.8137 890.075 0.422139 770.037 8.97604C676.037 15.6765 590.187 49.1772 511.74 86.633C305.625 185.054 130.179 316.049 1.48059 467.614" stroke="url(#paint0_linear_2016_255)" stroke-opacity="0.3" stroke-width="0.552088" stroke-miterlimit="10"/>
<path d="M3040.31 689.071C3042.99 559.55 2980.23 432.317 2868.13 322.775C2857.72 312.602 2847 302.593 2835.81 292.853C2799.02 260.859 2756.13 230.519 2702.18 215.911C2546.17 173.614 2378.99 256.868 2245.63 304.693C2127.4 347.094 2009.99 391.918 1888.44 432.382C1846.28 446.479 1803.75 460.041 1760.69 472.813C1667.28 500.513 1558.06 523.95 1468.08 491.295C1376.98 458.228 1341.37 381.863 1302.74 315.338C1257.73 237.825 1196.51 162.998 1107.46 106.736C1076.46 87.1479 1041.73 70.0186 1004.6 56.3578C935.128 30.7816 857.249 17.3308 779.728 22.6352C686.61 29.0067 601.393 61.1303 523.459 96.8556C365.679 169.131 226.066 259.249 110.753 363.386C76.3392 394.458 44.0976 426.772 14.2062 460.241" stroke="url(#paint1_linear_2016_255)" stroke-opacity="0.3" stroke-width="0.552088" stroke-miterlimit="10"/>
<path d="M3045.48 682.779C3048.08 557.576 2981.88 437.341 2866.57 327.389C2856.1 317.412 2845.44 307.531 2834.29 297.936C2797.55 266.387 2755.04 236.432 2701.86 221.713C2547.94 179.014 2383.4 257.634 2250.23 303.651C2133.25 344.073 2016.87 387.696 1895.4 427.288C1853.54 441.046 1811.33 454.315 1768.62 466.836C1675.97 493.992 1568.05 517.102 1478.75 486.019C1388.33 454.541 1351.56 381.231 1311.87 317.404C1265.61 243.032 1203.65 171.207 1114.76 117.183C1083.81 98.3754 1049.24 81.9236 1012.36 68.8079C943.375 44.2411 866.211 31.281 789.427 36.3132C697.192 42.3616 612.614 73.1024 535.186 107.091C378.369 175.836 239.704 260.954 124.094 360.262C89.5942 389.895 57.1529 420.779 26.9401 452.882" stroke="url(#paint2_linear_2016_255)" stroke-opacity="0.3" stroke-width="0.552088" stroke-miterlimit="10"/>
<path d="M3050.66 676.48C3053.16 555.595 2983.57 442.359 2865.02 331.997C2854.5 322.204 2843.91 312.457 2832.79 303.012C2796.11 271.902 2753.95 242.343 2701.56 227.515C2549.74 184.421 2387.86 258.406 2254.85 302.603C2139.15 341.052 2023.66 383.265 1902.38 422.193C1860.79 435.548 1818.94 448.589 1776.57 460.858C1684.67 487.465 1578.06 510.255 1489.44 480.743C1399.7 450.853 1361.77 380.605 1321.02 319.47C1273.5 248.24 1210.81 179.415 1122.09 127.623C1091.18 109.597 1056.78 93.8224 1020.15 81.2461C951.638 57.6886 875.206 45.2192 799.143 49.9849C707.79 55.7102 623.853 85.0682 546.929 117.321C391.066 182.54 253.358 262.653 137.452 357.138C102.866 385.331 70.2325 414.786 39.6984 445.528" stroke="url(#paint3_linear_2016_255)" stroke-opacity="0.3" stroke-width="0.552088" stroke-miterlimit="10"/>
<path d="M3055.84 670.187C3058.25 553.619 2985.29 447.371 2863.45 336.61C2852.88 327.007 2842.34 317.387 2831.27 308.093C2794.63 277.429 2752.85 248.254 2701.24 233.316C2551.52 189.826 2392.31 259.189 2259.45 301.561C2145.03 338.047 2030.5 378.978 1909.33 417.098C1868.03 430.097 1826.53 442.863 1784.5 454.879C1693.36 480.942 1588.06 503.412 1500.1 475.466C1411.05 447.171 1371.95 379.978 1330.13 321.535C1281.35 253.446 1217.94 187.616 1129.37 138.063C1098.51 120.811 1064.29 105.721 1027.89 93.6836C959.869 71.1412 884.16 59.1627 808.818 63.6503C718.34 69.0466 635.042 97.0276 558.632 127.544C403.732 189.232 266.972 264.346 150.762 354.002C116.08 380.755 83.2556 408.781 52.4001 438.156" stroke="url(#paint4_linear_2016_255)" stroke-opacity="0.3" stroke-width="0.552088" stroke-miterlimit="10"/>
<path d="M3061.01 663.889C3063.34 551.639 2987.05 452.373 2861.89 341.218C2851.28 331.8 2840.79 322.319 2829.77 313.17C2793.18 282.946 2751.76 254.161 2700.92 239.118C2553.3 195.233 2396.8 259.979 2264.05 300.519C2150.94 335.061 2037.36 374.698 1916.3 412.009C1875.29 424.652 1834.12 437.143 1792.44 448.907C1702.05 474.421 1598.05 496.571 1510.78 470.196C1422.41 443.49 1382.16 379.358 1339.26 323.607C1289.23 258.654 1225.09 195.831 1136.67 148.516C1105.86 132.045 1071.81 117.631 1035.65 106.134C968.116 84.6007 893.122 73.1129 818.516 77.3341C728.922 82.4072 646.264 109.011 570.359 137.791C416.42 195.954 280.61 266.063 164.102 350.896C129.335 376.209 96.3103 402.805 65.1335 430.814" stroke="url(#paint5_linear_2016_255)" stroke-opacity="0.3" stroke-width="0.552088" stroke-miterlimit="10"/>
<path d="M3066.19 657.591C3068.43 549.658 2988.86 457.357 2860.34 345.82C2849.69 336.586 2839.25 327.239 2828.26 318.24C2791.72 288.461 2750.68 260.061 2700.61 244.908C2555.09 200.628 2401.32 260.763 2268.66 299.46C2156.89 332.069 2044.23 370.4 1923.27 406.897C1882.55 419.183 1841.72 431.399 1800.38 442.906C1710.75 467.876 1608.06 489.7 1521.45 464.897C1433.76 439.779 1392.36 378.709 1348.39 325.65C1297.1 263.838 1232.23 204.015 1143.97 158.933C1113.21 143.243 1079.33 129.507 1043.42 118.554C976.355 98.0306 902.093 87.0336 828.208 90.9826C739.496 95.7325 657.47 120.954 582.078 147.997C429.102 202.63 294.24 267.739 177.437 347.743C142.574 371.615 109.358 396.783 77.8679 423.425" stroke="url(#paint6_linear_2016_255)" stroke-opacity="0.3" stroke-width="0.552088" stroke-miterlimit="10"/>
<path d="M3071.37 651.298C3073.51 547.683 2990.7 462.342 2858.77 350.433C2848.09 341.379 2837.69 332.171 2826.74 323.323C2790.25 293.983 2749.58 265.972 2700.29 250.715C2556.87 206.034 2405.83 261.582 2273.27 298.423C2162.83 329.111 2051.1 366.131 1930.23 401.814C1889.8 413.75 1849.3 425.679 1808.32 436.94C1719.44 461.36 1618.06 482.864 1532.12 459.632C1445.11 436.11 1402.55 378.089 1357.51 327.727C1304.98 269.057 1239.38 212.235 1151.28 169.391C1120.57 154.476 1086.85 141.423 1051.19 131.01C984.609 111.496 911.071 100.995 837.907 104.672C750.077 109.093 668.691 132.937 593.797 158.244C441.783 209.351 307.87 269.456 190.761 344.637C155.812 367.069 122.397 390.807 90.5852 416.083" stroke="url(#paint7_linear_2016_255)" stroke-opacity="0.3" stroke-width="0.552088" stroke-miterlimit="10"/>
<path d="M3076.55 644.999C3078.6 545.701 2992.6 467.303 2857.22 355.039C2846.51 346.164 2836.15 337.101 2825.24 328.398C2788.8 299.504 2748.49 271.883 2699.98 256.516C2558.66 211.439 2410.4 262.4 2277.88 297.374C2168.82 326.159 2057.97 361.85 1937.2 396.712C1897.08 408.292 1856.9 419.946 1816.26 430.955C1728.14 454.832 1628.06 476.01 1542.8 454.355C1456.47 432.421 1412.74 377.461 1366.64 329.792C1312.85 274.263 1246.52 220.442 1158.57 179.83C1127.92 165.695 1094.38 153.321 1058.95 143.447C992.857 124.948 920.042 114.932 847.598 118.342C760.652 122.44 679.906 144.902 605.516 168.478C454.465 216.054 321.5 271.16 204.095 341.511C169.051 362.504 135.444 384.807 103.311 408.728" stroke="url(#paint8_linear_2016_255)" stroke-opacity="0.3" stroke-width="0.552088" stroke-miterlimit="10"/>
<path d="M3081.72 638.701C3083.69 543.721 2994.52 472.249 2855.66 359.648C2844.93 350.952 2834.6 342.027 2823.73 333.475C2787.34 305.021 2747.4 277.79 2699.67 262.313C2560.45 216.841 2414.97 263.232 2282.49 296.328C2174.81 323.226 2064.85 357.582 1944.17 391.619C1904.34 402.853 1864.49 414.221 1824.2 424.978C1736.83 448.305 1638.06 469.163 1553.47 449.08C1467.83 428.735 1422.94 376.836 1375.77 331.859C1320.72 279.471 1253.66 228.651 1165.87 190.277C1135.27 176.923 1101.89 165.226 1066.71 155.892C1001.1 138.402 929.003 128.883 857.297 132.015C771.233 135.784 691.119 156.868 617.243 178.709C467.154 222.76 335.138 272.86 217.436 338.388C182.306 357.941 148.499 378.815 116.053 401.369" stroke="url(#paint9_linear_2016_255)" stroke-opacity="0.3" stroke-width="0.552088" stroke-miterlimit="10"/>
<path d="M3086.91 632.409C3088.78 541.747 2996.48 477.189 2854.1 364.256C2843.35 355.734 2833.05 346.954 2822.22 338.546C2785.88 310.537 2746.31 283.69 2699.35 268.109C2562.23 222.242 2419.56 264.075 2287.08 295.275C2180.81 320.304 2071.72 353.308 1951.12 386.513C1911.59 397.397 1872.07 408.484 1832.13 418.989C1745.52 441.773 1648.06 462.305 1564.13 443.793C1479.17 425.036 1433.12 376.199 1384.88 333.913C1328.58 284.667 1260.79 236.848 1173.16 200.707C1142.6 188.128 1109.39 177.108 1074.45 168.319C1009.33 151.838 937.958 142.81 866.972 145.676C781.783 149.122 702.317 168.823 628.946 188.927C479.819 229.447 348.752 274.543 230.746 335.248C195.529 353.36 161.522 372.804 128.755 393.992" stroke="url(#paint10_linear_2016_255)" stroke-opacity="0.3" stroke-width="0.552088" stroke-miterlimit="10"/>
<path d="M3092.08 626.11C3093.87 539.765 2998.48 482.098 2852.54 368.863C2841.78 360.513 2831.5 351.884 2820.71 343.621C2784.42 316.052 2745.22 289.595 2699.04 273.904C2564.02 227.641 2424.18 264.939 2291.7 294.226C2186.85 317.404 2078.61 349.039 1958.09 381.417C1918.87 391.957 1879.67 402.757 1840.08 413.01C1754.22 435.244 1658.06 455.462 1574.82 438.515C1490.55 421.354 1443.35 375.566 1394.03 335.984C1336.46 289.874 1267.95 245.06 1180.48 211.152C1149.98 199.354 1116.94 189.012 1082.24 180.768C1017.6 165.296 946.952 156.759 876.688 159.352C792.381 162.475 713.547 180.794 640.689 199.167C492.525 236.162 362.406 276.253 244.104 332.128C208.792 348.801 174.594 366.816 141.513 386.637" stroke="url(#paint11_linear_2016_255)" stroke-opacity="0.3" stroke-width="0.552088" stroke-miterlimit="10"/>
<path d="M3097.25 619.818C3098.95 537.79 3000.53 486.993 2850.98 373.477C2840.21 365.301 2829.97 356.799 2819.2 348.703C2783.03 321.528 2744.12 295.513 2698.72 279.712C2565.81 233.048 2428.81 265.829 2296.31 293.19C2192.9 314.541 2085.5 344.794 1965.06 376.329C1926.14 386.524 1887.28 397.031 1848.01 407.033C1762.91 428.723 1668.06 448.615 1585.49 433.24C1501.9 417.667 1453.54 374.941 1403.16 338.05C1344.33 295.081 1275.1 253.269 1187.78 221.599C1157.33 210.582 1124.45 200.917 1090 193.212C1025.84 178.756 955.915 170.709 886.387 173.03C802.963 175.824 724.769 192.766 652.416 209.403C505.214 242.867 376.044 277.958 257.445 329.011C222.047 344.243 187.649 360.829 154.247 379.29" stroke="url(#paint12_linear_2016_255)" stroke-opacity="0.3" stroke-width="0.552088" stroke-miterlimit="10"/>
<path d="M3102.44 613.52C3104.04 535.809 3002.61 491.858 2849.42 378.085C2838.64 370.076 2828.42 361.73 2817.69 353.78C2781.58 327.045 2743.03 301.419 2698.41 285.508C2567.59 238.449 2433.47 266.735 2300.91 292.137C2198.96 311.677 2092.38 340.531 1972.03 371.228C1933.41 381.079 1894.87 391.299 1855.96 401.049C1771.61 422.19 1678.06 441.762 1596.17 427.958C1513.26 413.974 1463.73 374.309 1412.29 340.111C1352.21 300.283 1282.24 261.471 1195.08 232.034C1164.67 221.791 1131.97 212.81 1097.75 205.645C1034.08 192.198 964.877 184.642 896.07 186.691C813.529 189.161 735.974 204.72 664.127 219.621C517.887 249.56 389.666 279.646 270.762 325.87C235.27 339.662 200.68 354.819 166.956 371.913" stroke="url(#paint13_linear_2016_255)" stroke-opacity="0.3" stroke-width="0.552088" stroke-miterlimit="10"/>
<path d="M3107.61 607.221C3109.13 533.828 3004.74 496.7 2847.86 382.692C2837.07 374.851 2826.87 366.655 2816.17 358.856C2780.11 332.56 2741.94 307.325 2698.09 291.309C2569.38 243.855 2438.14 267.664 2305.51 291.094C2205.03 308.847 2099.27 336.285 1978.99 366.133C1940.67 375.639 1902.45 385.573 1863.89 395.071C1780.3 415.668 1688.07 434.913 1606.83 422.681C1524.61 410.292 1473.92 373.682 1421.41 342.176C1360.07 305.49 1289.37 269.679 1202.37 242.479C1172.01 233.018 1139.48 224.714 1105.51 218.088C1042.31 205.65 973.839 198.585 905.753 200.368C824.095 202.515 747.172 216.691 675.83 229.861C530.552 256.27 403.279 281.356 284.08 322.757C248.5 335.109 213.711 348.836 179.674 364.564" stroke="url(#paint14_linear_2016_255)" stroke-opacity="0.3" stroke-width="0.552088" stroke-miterlimit="10"/>
<path d="M3112.79 600.928C3114.23 531.853 3006.91 501.518 2846.31 387.299C2835.52 379.626 2825.33 371.581 2814.68 363.931C2778.67 338.076 2740.85 313.23 2697.78 297.104C2571.17 249.255 2442.84 268.617 2310.13 290.04C2211.12 306.023 2106.17 332.033 1985.95 361.032C1947.94 370.199 1910.05 379.84 1871.83 389.086C1789 409.134 1698.07 428.06 1617.51 417.399C1535.97 406.598 1484.12 373.044 1430.53 344.235C1367.95 310.691 1296.52 277.881 1209.68 252.914C1179.37 244.233 1147.01 236.607 1113.28 230.526C1050.56 219.097 982.809 212.529 915.46 214.039C834.685 215.857 758.402 228.657 687.565 240.09C543.25 262.974 416.926 283.055 297.429 319.627C261.756 330.533 226.774 342.831 192.416 357.198" stroke="url(#paint15_linear_2016_255)" stroke-opacity="0.3" stroke-width="0.552088" stroke-miterlimit="10"/>
<path d="M3117.97 594.629C3119.3 529.871 3009.11 506.303 2844.74 391.906C2833.95 384.395 2823.77 376.506 2813.15 369.007C2777.19 343.597 2739.7 319.199 2697.46 302.906C2572.81 254.839 2447.53 269.604 2314.72 288.998C2217.21 303.24 2113.06 327.799 1992.91 355.937C1955.21 364.765 1917.63 374.114 1879.77 383.108C1797.68 402.612 1708.06 421.212 1628.18 412.123C1547.31 402.911 1494.31 372.418 1439.66 346.301C1375.82 315.898 1303.67 286.088 1216.98 263.36C1186.72 255.454 1154.53 248.511 1121.04 242.969C1058.81 232.556 991.779 226.473 925.151 227.711C845.25 229.206 769.607 240.622 699.283 250.32C555.93 269.672 430.555 284.754 310.754 316.502C274.994 325.968 239.813 336.838 205.133 349.843" stroke="url(#paint16_linear_2016_255)" stroke-opacity="0.3" stroke-width="0.552088" stroke-miterlimit="10"/>
<path d="M3123.15 588.337C3124.4 527.897 3011.35 511.066 2843.19 396.52C2832.39 389.17 2822.22 381.444 2811.66 374.09C2775.75 349.119 2738.63 325.111 2697.16 308.714C2574.61 260.246 2452.26 270.621 2319.35 287.962C2223.34 300.486 2119.98 323.577 1999.89 350.855C1962.5 359.349 1925.24 368.4 1887.72 377.142C1806.39 396.097 1718.07 414.376 1638.86 406.864C1558.68 399.247 1504.52 371.81 1448.8 348.384C1383.7 321.123 1310.82 294.314 1224.28 273.818C1194.08 266.693 1162.05 260.428 1128.81 255.425C1067.06 246.021 1000.76 240.435 934.85 241.4C855.832 242.566 780.829 252.612 711.011 260.573C568.62 276.4 444.185 286.477 324.096 313.396C288.241 321.422 252.876 330.862 217.876 342.501" stroke="url(#paint17_linear_2016_255)" stroke-opacity="0.3" stroke-width="0.552088" stroke-miterlimit="10"/>
<path d="M3128.32 582.039C3129.49 525.911 3013.64 515.794 2841.62 401.129C2830.83 393.941 2820.67 386.37 2810.13 379.167C2774.27 354.642 2737.52 331.017 2696.82 314.51C2576.38 265.647 2456.97 271.668 2323.94 286.909C2229.45 297.739 2126.86 319.344 2006.84 345.749C1969.76 353.911 1932.82 362.657 1895.64 371.154C1815.07 389.564 1728.07 407.524 1649.52 401.577C1570.02 395.549 1514.71 371.173 1457.91 350.439C1391.56 326.314 1317.95 302.505 1231.57 284.248C1201.41 277.903 1169.56 272.316 1136.55 267.853C1075.29 259.458 1009.7 254.362 944.526 255.055C866.39 255.898 792.027 264.561 722.714 270.786C581.285 283.082 457.799 288.154 337.414 310.256C301.472 316.842 265.908 324.852 230.586 335.125" stroke="url(#paint18_linear_2016_255)" stroke-opacity="0.3" stroke-width="0.552088" stroke-miterlimit="10"/>
<path d="M3133.5 575.74C3134.58 523.929 3015.96 520.481 2840.07 405.73C2829.29 398.698 2819.12 391.295 2808.63 384.236C2772.82 360.151 2736.44 336.917 2696.52 320.305C2578.18 271.041 2461.72 272.742 2328.55 285.86C2235.58 295.019 2133.78 315.127 2013.82 340.654C1977.04 348.482 1940.42 356.93 1903.59 365.169C1823.78 383.03 1738.07 400.67 1660.2 396.295C1581.39 391.855 1524.91 370.534 1467.05 352.499C1399.44 331.514 1325.1 310.707 1238.88 294.687C1208.78 289.118 1177.09 284.214 1144.33 280.296C1083.55 272.91 1018.69 268.305 954.24 268.732C876.988 269.252 803.257 276.532 734.456 281.02C593.99 289.791 471.453 289.859 350.763 307.131C314.734 312.277 278.97 318.858 243.327 327.765" stroke="url(#paint19_linear_2016_255)" stroke-opacity="0.3" stroke-width="0.552088" stroke-miterlimit="10"/>
<path d="M3138.68 569.447C3139.66 521.954 3018.33 525.14 2838.51 410.343C2827.74 403.467 2817.57 396.226 2807.12 389.318C2771.35 365.678 2735.34 342.828 2696.21 326.107C2579.96 276.441 2466.46 273.862 2333.16 284.812C2241.7 292.323 2140.68 310.91 2020.78 335.553C1984.31 343.048 1948.01 351.198 1911.53 359.185C1832.47 376.502 1748.07 393.816 1670.88 391.012C1592.74 388.167 1535.11 369.902 1476.18 354.558C1407.31 336.715 1332.24 318.909 1246.18 305.122C1216.13 300.333 1184.61 296.106 1152.09 292.728C1091.79 286.358 1027.66 282.243 963.932 282.392C887.562 282.583 814.471 288.486 746.176 291.244C606.672 296.484 485.083 291.552 364.096 303.995C327.973 307.701 292.018 312.853 256.061 320.393" stroke="url(#paint20_linear_2016_255)" stroke-opacity="0.3" stroke-width="0.552088" stroke-miterlimit="10"/>
<path d="M3143.85 563.149C3144.75 519.973 3020.73 529.759 2836.94 414.95C2826.18 408.225 2816.02 401.152 2805.61 394.394C2769.89 371.2 2734.3 348.682 2695.88 331.908C2581.87 281.681 2471.19 275.024 2337.75 283.77C2247.82 289.662 2147.59 306.705 2027.74 330.464C1991.58 337.632 1955.6 345.478 1919.46 353.213C1841.16 369.981 1758.07 386.974 1681.54 385.742C1604.1 384.486 1545.3 369.282 1485.3 356.63C1415.19 341.929 1339.39 327.123 1253.48 315.574C1223.48 311.566 1192.13 308.017 1159.85 305.178C1100.03 299.817 1036.63 296.193 973.623 296.075C898.128 295.943 825.676 300.463 757.887 301.485C619.345 303.2 498.705 293.263 377.422 300.883C341.212 303.149 305.057 306.866 268.779 313.051" stroke="url(#paint21_linear_2016_255)" stroke-opacity="0.3" stroke-width="0.552088" stroke-miterlimit="10"/>
<path d="M3149.04 556.857C3149.84 517.999 3023.17 534.343 2835.39 419.564C2824.64 412.995 2814.47 406.09 2804.1 399.477C2768.42 376.728 2733.21 354.595 2695.57 337.71C2583.67 287.082 2475.94 276.226 2342.37 282.729C2253.96 287.03 2154.51 302.513 2034.71 325.37C1998.86 332.211 1963.2 339.753 1927.4 347.236C1849.85 363.46 1768.07 380.127 1692.22 380.466C1615.45 380.799 1555.5 368.656 1494.43 358.696C1423.06 347.136 1346.53 335.331 1260.78 326.015C1230.82 322.782 1199.65 319.91 1167.62 317.616C1108.28 313.265 1045.59 310.132 983.322 309.748C908.709 309.292 836.898 312.429 769.613 311.715C632.034 309.899 512.343 294.963 390.755 297.753C354.451 298.579 318.104 300.867 281.512 305.685" stroke="url(#paint22_linear_2016_255)" stroke-opacity="0.3" stroke-width="0.552088" stroke-miterlimit="10"/>
<path d="M3154.21 550.558C3154.93 516.018 3025.64 538.876 2833.83 424.166C2823.09 417.748 2812.92 411.009 2802.59 404.547C2766.96 382.244 2732.12 360.495 2695.26 343.506C2585.45 292.483 2480.67 277.468 2346.98 281.675C2260.08 284.409 2161.42 298.308 2041.67 320.269C2006.13 326.783 1970.78 334.015 1935.34 341.252C1858.54 356.926 1778.07 373.274 1702.89 375.184C1626.8 377.112 1565.69 368.019 1503.55 360.756C1430.92 352.338 1353.67 343.533 1268.08 336.455C1238.17 334.003 1207.16 331.809 1175.38 330.06C1116.52 326.718 1054.56 324.082 993.013 323.42C919.283 322.635 848.112 324.395 781.332 321.944C644.715 316.603 525.972 296.662 404.088 294.63C367.698 294.015 331.151 294.874 294.238 298.326" stroke="url(#paint23_linear_2016_255)" stroke-opacity="0.3" stroke-width="0.552088" stroke-miterlimit="10"/>
<path d="M3159.39 544.26C3160.02 514.037 3028.17 543.368 2832.27 428.774C2821.55 422.5 2811.35 415.952 2801.08 409.623C2765.44 387.811 2731.02 366.4 2694.94 349.308C2587.23 297.889 2485.41 278.762 2351.58 280.633C2266.2 281.823 2168.34 294.132 2048.64 315.174C2013.42 321.367 1978.38 328.289 1943.28 335.274C1867.24 350.404 1788.07 366.426 1713.56 369.908C1638.16 373.424 1575.89 367.392 1512.68 362.822C1438.8 357.539 1360.82 351.741 1275.38 346.896C1245.52 345.224 1214.68 343.708 1183.14 342.498C1124.77 340.171 1063.53 338.02 1002.7 337.091C929.857 335.983 859.317 336.361 793.051 332.179C657.396 323.307 539.602 298.367 417.422 291.505C380.936 289.451 344.198 288.881 306.964 290.966" stroke="url(#paint24_linear_2016_255)" stroke-opacity="0.3" stroke-width="0.552088" stroke-miterlimit="10"/>
<path d="M3164.57 537.967C3165.1 512.062 3030.72 547.82 2830.71 433.387C2820 427.263 2809.8 420.889 2799.57 414.7C2763.98 393.333 2729.94 372.312 2694.63 355.103C2589.03 303.289 2490.12 280.103 2356.19 279.579C2272.31 279.254 2175.26 289.944 2055.6 310.074C2020.69 315.945 1985.97 322.557 1951.22 329.284C1875.94 343.865 1798.07 359.573 1724.24 364.62C1649.52 369.725 1586.09 366.754 1521.81 364.876C1446.67 362.735 1367.96 359.938 1282.68 357.324C1252.87 356.428 1222.2 355.595 1190.9 354.925C1133.01 353.607 1072.5 351.952 1012.4 350.745C940.431 349.315 870.532 348.309 804.77 342.391C670.078 329.994 553.233 300.049 430.747 288.364C394.176 284.87 357.237 282.87 319.69 283.594" stroke="url(#paint25_linear_2016_255)" stroke-opacity="0.3" stroke-width="0.552088" stroke-miterlimit="10"/>
<path d="M3169.75 531.668C3170.19 510.08 3033.32 552.22 2829.16 437.994C2818.47 432.015 2808.25 425.814 2798.06 419.775C2762.52 398.848 2728.84 378.217 2694.32 360.904C2590.81 308.695 2494.81 281.494 2360.8 278.536C2278.39 276.719 2182.17 285.779 2062.57 304.978C2027.97 310.533 1993.56 316.83 1959.16 323.305C1884.63 337.343 1808.07 352.724 1734.91 359.349C1660.87 366.043 1596.28 366.133 1530.94 366.947C1454.55 367.947 1375.11 368.151 1289.98 367.776C1260.22 367.66 1229.72 367.504 1198.66 367.374C1141.25 367.065 1081.47 365.901 1022.09 364.428C951.013 362.668 881.745 360.286 816.497 352.632C682.767 336.704 566.87 301.753 444.089 285.245C407.43 280.311 370.292 276.882 332.424 276.24" stroke="url(#paint26_linear_2016_255)" stroke-opacity="0.3" stroke-width="0.552088" stroke-miterlimit="10"/>
<path d="M3174.92 525.376C3175.28 508.105 3035.95 556.575 2827.59 442.608C2816.92 436.773 2806.69 430.746 2796.55 424.858C2761.06 404.376 2727.75 384.129 2694 366.706C2592.6 314.095 2499.48 282.939 2365.41 277.495C2284.47 274.208 2189.1 281.621 2069.54 299.89C2035.25 305.129 2001.16 311.11 1967.1 317.334C1893.32 330.822 1818.07 345.883 1745.58 354.079C1672.23 362.367 1606.48 365.508 1540.07 369.019C1462.42 373.16 1382.24 376.365 1297.28 378.222C1267.57 378.887 1237.24 379.409 1206.41 379.818C1149.49 380.518 1090.43 379.845 1031.78 378.1C961.57 376.017 892.951 372.252 828.208 362.867C695.44 343.414 580.492 303.458 457.414 282.121C420.661 275.747 383.331 270.889 345.141 268.88" stroke="url(#paint27_linear_2016_255)" stroke-opacity="0.3" stroke-width="0.552088" stroke-miterlimit="10"/>
<path d="M3180.1 519.078C3180.38 506.125 3038.62 560.872 2826.04 447.21C2815.39 441.514 2805.15 435.672 2795.04 429.928C2759.6 409.886 2726.66 390.03 2693.69 372.502C2594.39 319.496 2504.12 284.429 2370.02 276.442C2290.53 271.708 2196.02 277.463 2076.5 294.784C2042.53 299.707 2008.76 305.367 1975.04 311.344C1902.02 324.289 1828.07 339.024 1756.26 348.792C1683.6 358.669 1616.68 364.87 1549.2 371.073C1470.29 378.356 1389.4 384.562 1304.59 388.657C1274.94 390.098 1244.77 391.303 1214.19 392.256C1157.75 393.972 1099.41 393.79 1041.48 391.772C972.161 389.36 904.181 384.218 839.935 373.097C708.129 350.119 594.13 305.158 470.748 278.998C433.908 271.183 396.379 264.89 357.875 261.521" stroke="url(#paint28_linear_2016_255)" stroke-opacity="0.3" stroke-width="0.552088" stroke-miterlimit="10"/>
<path d="M3185.28 512.778C3185.45 504.143 3041.32 565.117 2824.48 451.817C2813.85 446.26 2803.6 440.597 2793.54 435.004C2758.15 415.407 2725.57 395.941 2693.38 378.298C2596.17 324.896 2508.72 285.97 2374.62 275.393C2296.55 269.236 2202.93 273.321 2083.47 289.688C2049.81 294.302 2016.35 299.64 1982.98 305.366C1910.72 317.761 1838.08 332.176 1766.94 343.515C1694.96 354.981 1626.88 364.244 1558.33 373.139C1478.17 383.563 1396.54 392.769 1311.89 399.097C1282.29 401.318 1252.29 403.201 1221.95 404.694C1165.99 407.419 1108.38 407.727 1051.18 405.443C982.742 402.708 915.395 396.183 851.662 383.326C720.819 356.817 607.768 306.857 484.089 275.867C447.155 266.613 409.434 258.89 370.609 254.16" stroke="url(#paint29_linear_2016_255)" stroke-opacity="0.3" stroke-width="0.552088" stroke-miterlimit="10"/>
<path d="M3190.45 506.485C3190.54 502.168 3044.06 569.31 2822.91 456.43C2812.3 451.012 2802.05 445.534 2792.01 440.085C2756.68 420.928 2724.47 401.852 2693.05 384.105C2597.95 330.308 2513.27 287.575 2379.22 274.35C2302.54 266.787 2209.87 269.295 2090.42 284.593C2057.08 288.926 2023.93 293.913 1990.91 299.387C1919.4 311.238 1848.07 325.328 1777.6 338.238C1706.3 351.299 1637.07 363.617 1567.44 375.204C1486.03 388.77 1403.67 400.976 1319.18 409.543C1289.62 412.545 1259.79 415.105 1229.7 417.137C1174.22 420.872 1117.33 421.671 1060.86 419.114C993.3 416.056 926.592 408.154 863.365 393.56C733.484 363.527 621.382 308.561 497.407 272.749C460.386 262.054 422.465 252.902 383.327 246.806" stroke="url(#paint30_linear_2016_255)" stroke-opacity="0.3" stroke-width="0.552088" stroke-miterlimit="10"/>
<path d="M3195.64 500.187C3195.64 500.187 3046.84 573.446 2821.36 461.038C2595.88 348.63 2518.85 228.542 2097.4 279.499C1806.16 314.714 1531.01 404.245 1237.48 429.576C1116.71 439.997 990.257 433.77 875.1 403.79C746.181 370.226 635.028 310.261 510.748 269.619C473.632 257.485 435.528 246.904 396.061 239.44" stroke="url(#paint31_linear_2016_255)" stroke-opacity="0.3" stroke-width="0.552088" stroke-miterlimit="10"/>
<path d="M3165.93 693.371C3162.9 546.822 3234.25 399.791 3363.74 285.784C3400.58 253.349 3443.84 222.62 3498.56 208.116C3656.68 166.214 3826.48 254.109 3960.03 303.747C4121.21 363.645 4280.58 426.486 4448.31 476.804C4542.47 505.053 4653 528.81 4743.64 494.584C4835.43 459.922 4869.88 380.501 4907.44 311.285C4951.19 230.63 5011.69 152.803 5100.89 94.3083C5190.09 35.8137 5310.98 -1.57786 5431.02 6.97604C5525.02 13.6765 5610.87 47.1772 5689.31 84.633C5895.43 183.054 6070.87 314.049 6199.57 465.614" stroke="url(#paint32_linear_2016_255)" stroke-opacity="0.3" stroke-width="0.552088" stroke-miterlimit="10"/>
<path d="M3160.75 687.071C3158.06 557.55 3220.82 430.317 3332.92 320.775C3343.34 310.602 3354.05 300.593 3365.24 290.853C3402.03 258.859 3444.92 228.519 3498.87 213.911C3654.89 171.614 3822.07 254.868 3955.42 302.693C4073.65 345.094 4191.07 389.918 4312.61 430.382C4354.78 444.479 4397.3 458.041 4440.36 470.813C4533.77 498.513 4642.99 521.95 4732.97 489.295C4824.07 456.228 4859.68 379.863 4898.31 313.338C4943.32 235.825 5004.54 160.998 5093.59 104.736C5124.59 85.1479 5159.32 68.0186 5196.45 54.3578C5265.92 28.7816 5343.8 15.3308 5421.32 20.6352C5514.44 27.0067 5599.66 59.1303 5677.59 94.8556C5835.37 167.131 5974.99 257.249 6090.3 361.386C6124.71 392.458 6156.95 424.772 6186.85 458.241" stroke="url(#paint33_linear_2016_255)" stroke-opacity="0.3" stroke-width="0.552088" stroke-miterlimit="10"/>
<path d="M3155.57 680.779C3152.98 555.576 3219.18 435.341 3334.48 325.389C3344.95 315.412 3355.61 305.531 3366.76 295.936C3403.5 264.387 3446.01 234.432 3499.19 219.713C3653.12 177.014 3817.65 255.634 3950.82 301.651C4067.8 342.073 4184.18 385.696 4305.65 425.288C4347.51 439.046 4389.72 452.315 4432.43 464.836C4525.08 491.992 4633 515.102 4722.3 484.019C4812.72 452.541 4849.49 379.231 4889.18 315.404C4935.44 241.032 4997.4 169.207 5086.29 115.183C5117.24 96.3754 5151.81 79.9236 5188.69 66.8079C5257.68 42.2411 5334.84 29.281 5411.62 34.3132C5503.86 40.3616 5588.44 71.1024 5665.87 105.091C5822.68 173.836 5961.35 258.954 6076.96 358.262C6111.46 387.895 6143.9 418.779 6174.11 450.882" stroke="url(#paint34_linear_2016_255)" stroke-opacity="0.3" stroke-width="0.552088" stroke-miterlimit="10"/>
<path d="M3150.39 674.48C3147.89 553.595 3217.48 440.359 3336.04 329.997C3346.55 320.204 3357.15 310.457 3368.26 301.012C3404.95 269.902 3447.1 240.343 3499.49 225.515C3651.31 182.421 3813.19 256.406 3946.2 300.603C4061.9 339.052 4177.39 381.265 4298.67 420.193C4340.26 433.548 4382.11 446.589 4424.48 458.858C4516.38 485.465 4622.99 508.255 4711.61 478.743C4801.35 448.853 4839.28 378.605 4880.03 317.47C4927.56 246.24 4990.24 177.415 5078.97 125.623C5109.88 107.597 5144.27 91.8224 5180.9 79.2461C5249.41 55.6886 5325.85 43.2192 5401.91 47.9849C5493.26 53.7102 5577.2 83.0682 5654.12 115.321C5809.99 180.54 5947.69 260.653 6063.6 355.138C6098.19 383.331 6130.82 412.786 6161.35 443.528" stroke="url(#paint35_linear_2016_255)" stroke-opacity="0.3" stroke-width="0.552088" stroke-miterlimit="10"/>
<path d="M3145.22 668.187C3142.8 551.619 3215.76 445.371 3337.6 334.61C3348.17 325.007 3358.71 315.387 3369.78 306.093C3406.42 275.429 3448.2 246.254 3499.82 231.316C3649.53 187.826 3808.74 257.189 3941.6 299.561C4056.02 336.047 4170.55 376.978 4291.72 415.098C4333.02 428.097 4374.52 440.863 4416.55 452.879C4507.7 478.942 4613 501.412 4700.95 473.466C4790 445.171 4829.1 377.978 4870.92 319.535C4919.7 251.446 4983.11 185.616 5071.68 136.063C5102.54 118.811 5136.76 103.721 5173.16 91.6836C5241.18 69.1412 5316.89 57.1627 5392.23 61.6503C5482.71 67.0466 5566.01 95.0276 5642.42 125.544C5797.32 187.232 5934.08 262.346 6050.29 352.002C6084.97 378.755 6117.8 406.781 6148.65 436.156" stroke="url(#paint36_linear_2016_255)" stroke-opacity="0.3" stroke-width="0.552088" stroke-miterlimit="10"/>
<path d="M3140.04 661.889C3137.72 549.639 3214 450.373 3339.16 339.218C3349.77 329.8 3360.26 320.319 3371.29 311.17C3407.88 280.946 3449.29 252.161 3500.13 237.118C3647.75 193.233 3804.25 257.979 3937 298.519C4050.11 333.061 4163.69 372.698 4284.75 410.009C4325.76 422.652 4366.93 435.143 4408.61 446.907C4499 472.421 4603 494.571 4690.27 468.196C4778.65 441.49 4818.89 377.358 4861.79 321.607C4911.83 256.654 4975.97 193.831 5064.38 146.516C5095.19 130.045 5129.25 115.631 5165.4 104.134C5232.94 82.6007 5307.93 71.1129 5382.54 75.3341C5472.13 80.4072 5554.79 107.011 5630.69 135.791C5784.63 193.954 5920.44 264.063 6036.95 348.896C6071.72 374.209 6104.74 400.805 6135.92 428.814" stroke="url(#paint37_linear_2016_255)" stroke-opacity="0.3" stroke-width="0.552088" stroke-miterlimit="10"/>
<path d="M3134.86 655.591C3132.62 547.658 3212.19 455.357 3340.71 343.82C3351.36 334.586 3361.8 325.239 3372.79 316.24C3409.33 286.461 3450.37 258.061 3500.44 242.908C3645.96 198.628 3799.74 258.763 3932.39 297.46C4044.17 330.069 4156.83 368.4 4277.78 404.897C4318.5 417.183 4359.34 429.399 4400.67 440.906C4490.3 465.876 4592.99 487.7 4679.6 462.897C4767.29 437.779 4808.7 376.709 4852.66 323.65C4903.95 261.838 4968.82 202.015 5057.08 156.933C5087.84 141.243 5121.72 127.507 5157.64 116.554C5224.7 96.0306 5298.96 85.0336 5372.84 88.9826C5461.56 93.7325 5543.58 118.954 5618.97 145.997C5771.95 200.63 5906.81 265.739 6023.62 345.743C6058.48 369.615 6091.69 394.783 6123.18 421.425" stroke="url(#paint38_linear_2016_255)" stroke-opacity="0.3" stroke-width="0.552088" stroke-miterlimit="10"/>
<path d="M3129.69 649.298C3127.54 545.683 3210.35 460.342 3342.28 348.433C3352.96 339.379 3363.36 330.171 3374.31 321.323C3410.8 291.983 3451.48 263.972 3500.76 248.715C3644.18 204.034 3795.22 259.582 3927.79 296.423C4038.22 327.111 4149.95 364.131 4270.83 399.814C4311.25 411.75 4351.75 423.679 4392.73 434.94C4481.61 459.36 4583 480.864 4668.93 457.632C4755.94 434.11 4798.51 376.089 4843.54 325.727C4896.08 267.057 4961.67 210.235 5049.78 167.391C5080.48 152.476 5114.2 139.423 5149.87 129.01C5216.44 109.496 5289.98 98.9952 5363.15 102.672C5450.97 107.093 5532.36 130.937 5607.25 156.244C5759.27 207.351 5893.18 267.456 6010.29 342.637C6045.24 365.069 6078.66 388.807 6110.47 414.083" stroke="url(#paint39_linear_2016_255)" stroke-opacity="0.3" stroke-width="0.552088" stroke-miterlimit="10"/>
<path d="M3124.5 642.999C3122.45 543.701 3208.45 465.303 3343.83 353.039C3354.54 344.164 3364.9 335.101 3375.81 326.398C3412.25 297.504 3452.56 269.883 3501.07 254.516C3642.39 209.439 3790.65 260.4 3923.17 295.374C4032.23 324.159 4143.08 359.85 4263.85 394.712C4303.97 406.292 4344.15 417.946 4384.79 428.955C4472.91 452.832 4572.99 474.01 4658.25 452.355C4744.58 430.421 4788.31 375.461 4834.41 327.792C4888.21 272.263 4954.54 218.442 5042.48 177.83C5073.13 163.695 5106.68 151.321 5142.1 141.447C5208.2 122.948 5281.01 112.932 5353.45 116.342C5440.4 120.44 5521.15 142.902 5595.54 166.478C5746.59 214.054 5879.55 269.16 5996.96 339.511C6032 360.504 6065.61 382.807 6097.74 406.728" stroke="url(#paint40_linear_2016_255)" stroke-opacity="0.3" stroke-width="0.552088" stroke-miterlimit="10"/>
<path d="M3119.33 636.701C3117.36 541.721 3206.54 470.249 3345.39 357.648C3356.12 348.952 3366.45 340.027 3377.32 331.475C3413.71 303.021 3453.65 275.79 3501.38 260.313C3640.6 214.841 3786.08 261.232 3918.56 294.328C4026.24 321.226 4136.2 355.582 4256.88 389.619C4296.71 400.853 4336.56 412.221 4376.85 422.978C4464.22 446.305 4562.99 467.163 4647.58 447.08C4733.22 426.735 4778.11 374.836 4825.28 329.859C4880.34 277.471 4947.39 226.651 5035.18 188.277C5065.78 174.923 5099.16 163.226 5134.34 153.892C5199.96 136.402 5272.05 126.883 5343.75 130.015C5429.82 133.784 5509.93 154.868 5583.81 176.709C5733.9 220.76 5865.91 270.86 5983.62 336.388C6018.75 355.941 6052.55 376.815 6085 399.369" stroke="url(#paint41_linear_2016_255)" stroke-opacity="0.3" stroke-width="0.552088" stroke-miterlimit="10"/>
<path d="M3114.15 630.409C3112.27 539.747 3204.57 475.189 3346.96 362.256C3357.7 353.734 3368 344.954 3378.84 336.546C3415.18 308.537 3454.75 281.69 3501.71 266.109C3638.82 220.242 3781.49 262.075 3913.97 293.275C4020.24 318.304 4129.33 351.308 4249.93 384.513C4289.46 395.397 4328.98 406.484 4368.92 416.989C4455.54 439.773 4553 460.305 4636.92 441.793C4721.88 423.036 4767.93 374.199 4816.17 331.913C4872.48 282.667 4940.26 234.848 5027.9 198.707C5058.45 186.128 5091.66 175.108 5126.6 166.319C5191.73 149.838 5263.1 140.81 5334.08 143.676C5419.27 147.122 5498.74 166.823 5572.11 186.927C5721.23 227.447 5852.3 272.543 5970.31 333.248C6005.52 351.36 6039.53 370.804 6072.3 391.992" stroke="url(#paint42_linear_2016_255)" stroke-opacity="0.3" stroke-width="0.552088" stroke-miterlimit="10"/>
<path d="M3108.97 624.11C3107.18 537.765 3202.57 480.098 3348.51 366.863C3359.28 358.513 3369.55 349.884 3380.34 341.621C3416.64 314.052 3455.84 287.595 3502.01 271.904C3637.03 225.641 3776.87 262.939 3909.36 292.226C4014.2 315.404 4122.44 347.039 4242.96 379.417C4282.18 389.957 4321.38 400.757 4360.97 411.01C4446.83 433.244 4542.99 453.462 4626.23 436.515C4710.5 419.354 4757.71 373.566 4807.02 333.984C4864.59 287.874 4933.1 243.06 5020.57 209.152C5051.07 197.354 5084.12 187.012 5118.81 178.768C5183.46 163.296 5254.1 154.759 5324.36 157.352C5408.67 160.475 5487.51 178.794 5560.36 197.167C5708.53 234.162 5838.65 274.253 5956.95 330.128C5992.26 346.801 6026.46 364.816 6059.54 384.637" stroke="url(#paint43_linear_2016_255)" stroke-opacity="0.3" stroke-width="0.552088" stroke-miterlimit="10"/>
<path d="M3103.8 617.818C3102.1 535.79 3200.53 484.993 3350.07 371.477C3360.85 363.301 3371.08 354.799 3381.86 346.703C3418.02 319.528 3456.93 293.513 3502.33 277.712C3635.24 231.048 3772.24 263.829 3904.74 291.19C4008.15 312.541 4115.55 342.794 4235.99 374.329C4274.92 384.524 4313.78 395.031 4353.04 405.033C4438.14 426.723 4532.99 446.615 4615.56 431.24C4699.15 415.667 4747.52 372.941 4797.89 336.05C4856.72 293.081 4925.95 251.269 5013.27 219.599C5043.72 208.582 5076.6 198.917 5111.05 191.212C5175.22 176.756 5245.14 168.709 5314.66 171.03C5398.09 173.824 5476.28 190.766 5548.64 207.403C5695.84 240.867 5825.01 275.958 5943.61 327.011C5979 342.243 6013.4 358.829 6046.8 377.29" stroke="url(#paint44_linear_2016_255)" stroke-opacity="0.3" stroke-width="0.552088" stroke-miterlimit="10"/>
<path d="M3098.62 611.52C3097.01 533.809 3198.44 489.858 3351.63 376.085C3362.41 368.076 3372.63 359.73 3383.36 351.78C3419.48 325.045 3458.02 299.419 3502.65 283.508C3633.46 236.449 3767.58 264.735 3900.14 290.137C4002.09 309.677 4108.67 338.531 4229.02 369.228C4267.64 379.079 4306.18 389.299 4345.1 399.049C4429.44 420.19 4522.99 439.762 4604.89 425.958C4687.79 411.974 4737.32 372.309 4788.77 338.111C4848.84 298.283 4918.81 259.471 5005.97 230.034C5036.38 219.791 5069.08 210.81 5103.3 203.645C5166.98 190.198 5236.18 182.642 5304.98 184.691C5387.52 187.161 5465.08 202.72 5536.92 217.621C5683.16 247.56 5811.39 277.646 5930.29 323.87C5965.78 337.662 6000.37 352.819 6034.1 369.913" stroke="url(#paint45_linear_2016_255)" stroke-opacity="0.3" stroke-width="0.552088" stroke-miterlimit="10"/>
<path d="M3093.44 605.221C3091.92 531.828 3196.32 494.7 3353.19 380.692C3363.98 372.851 3374.18 364.655 3384.88 356.856C3420.94 330.56 3459.11 305.325 3502.96 289.309C3631.68 241.855 3762.91 265.664 3895.54 289.094C3996.02 306.847 4101.78 334.285 4222.07 364.133C4260.38 373.639 4298.6 383.573 4337.16 393.071C4420.75 413.668 4512.99 432.913 4594.22 420.681C4676.44 408.292 4727.13 371.682 4779.65 340.176C4840.98 303.49 4911.68 267.679 4998.68 240.479C5029.04 231.018 5061.57 222.714 5095.54 216.088C5158.74 203.65 5227.21 196.585 5295.3 198.368C5376.96 200.515 5453.88 214.691 5525.22 227.861C5670.5 254.27 5797.77 279.356 5916.97 320.757C5952.55 333.109 5987.34 346.836 6021.38 362.564" stroke="url(#paint46_linear_2016_255)" stroke-opacity="0.3" stroke-width="0.552088" stroke-miterlimit="10"/>
<path d="M3088.26 598.928C3086.83 529.853 3194.15 499.518 3354.74 385.299C3365.54 377.626 3375.72 369.581 3386.38 361.931C3422.38 336.076 3460.2 311.23 3503.27 295.104C3629.88 247.255 3758.21 266.617 3890.93 288.04C3989.93 304.023 4094.88 330.033 4215.1 359.032C4253.11 368.199 4291.01 377.84 4329.22 387.086C4412.06 407.134 4502.99 426.06 4583.54 415.399C4665.08 404.598 4716.93 371.044 4770.52 342.235C4833.1 308.691 4904.53 275.881 4991.37 250.914C5021.68 242.233 5054.04 234.607 5087.77 228.526C5150.49 217.097 5218.24 210.529 5285.59 212.039C5366.37 213.857 5442.65 226.657 5513.49 238.09C5657.8 260.974 5784.13 281.055 5903.62 317.627C5939.3 328.533 5974.28 340.831 6008.64 355.198" stroke="url(#paint47_linear_2016_255)" stroke-opacity="0.3" stroke-width="0.552088" stroke-miterlimit="10"/>
<path d="M3083.09 592.629C3081.75 527.871 3191.94 504.303 3356.31 389.906C3367.11 382.395 3377.28 374.506 3387.9 367.007C3423.86 341.597 3461.35 317.199 3503.6 300.906C3628.24 252.839 3753.52 267.604 3886.33 286.998C3983.84 301.24 4087.99 325.799 4208.14 353.937C4245.84 362.765 4283.42 372.114 4321.29 381.108C4403.37 400.612 4492.99 419.212 4572.88 410.123C4653.74 400.911 4706.74 370.418 4761.39 344.301C4825.23 313.898 4897.39 284.088 4984.08 261.36C5014.33 253.454 5046.53 246.511 5080.01 240.969C5142.24 230.556 5209.27 224.473 5275.9 225.711C5355.8 227.206 5431.44 238.622 5501.77 248.32C5645.12 267.672 5770.5 282.754 5890.3 314.502C5926.06 323.968 5961.24 334.838 5995.92 347.843" stroke="url(#paint48_linear_2016_255)" stroke-opacity="0.3" stroke-width="0.552088" stroke-miterlimit="10"/>
<path d="M3077.9 586.337C3076.65 525.897 3189.7 509.066 3357.86 394.52C3368.66 387.17 3378.83 379.444 3389.4 372.09C3425.31 347.119 3462.42 323.111 3503.9 306.714C3626.44 258.246 3748.79 268.621 3881.7 285.962C3977.71 298.486 4081.07 321.577 4201.16 348.855C4238.55 357.349 4275.81 366.4 4313.34 375.142C4394.66 394.097 4482.98 412.376 4562.19 404.864C4642.38 397.247 4696.53 369.81 4752.25 346.384C4817.35 319.123 4890.23 292.314 4976.77 271.818C5006.97 264.693 5039 258.428 5072.24 253.425C5133.99 244.021 5200.29 238.435 5266.2 239.4C5345.22 240.566 5420.22 250.612 5490.04 258.573C5632.43 274.4 5756.87 284.477 5876.96 311.396C5912.81 319.422 5948.18 328.862 5983.18 340.501" stroke="url(#paint49_linear_2016_255)" stroke-opacity="0.3" stroke-width="0.552088" stroke-miterlimit="10"/>
<path d="M3072.73 580.039C3071.57 523.911 3187.42 513.794 3359.43 399.129C3370.22 391.941 3380.38 384.37 3390.92 377.167C3426.78 352.642 3463.53 329.017 3504.23 312.51C3624.68 263.647 3744.08 269.668 3877.12 284.909C3971.61 295.739 4074.2 317.344 4194.21 343.749C4231.29 351.911 4268.23 360.657 4305.41 369.154C4385.98 387.564 4472.99 405.524 4551.53 399.577C4631.03 393.549 4686.35 369.173 4743.14 348.439C4809.49 324.314 4883.1 300.505 4969.49 282.248C4999.64 275.903 5031.5 270.316 5064.5 265.853C5125.77 257.458 5191.35 252.362 5256.53 253.055C5334.66 253.898 5409.03 262.561 5478.34 268.786C5619.77 281.082 5743.25 286.154 5863.64 308.256C5899.58 314.842 5935.15 322.852 5970.47 333.125" stroke="url(#paint50_linear_2016_255)" stroke-opacity="0.3" stroke-width="0.552088" stroke-miterlimit="10"/>
<path d="M3067.55 573.74C3066.47 521.929 3185.09 518.481 3360.98 403.73C3371.76 396.698 3381.93 389.295 3392.42 382.236C3428.23 358.151 3464.61 334.917 3504.53 318.305C3622.87 269.041 3739.33 270.742 3872.5 283.86C3965.47 293.019 4067.27 313.127 4187.23 338.654C4224.01 346.482 4260.63 354.93 4297.46 363.169C4377.28 381.03 4462.98 398.67 4540.85 394.295C4619.67 389.855 4676.14 368.534 4734 350.499C4801.61 329.514 4875.95 308.707 4962.17 292.687C4992.27 287.118 5023.96 282.214 5056.72 278.296C5117.5 270.91 5182.36 266.305 5246.81 266.732C5324.06 267.252 5397.8 274.532 5466.6 279.02C5607.06 287.791 5729.6 287.859 5850.29 305.131C5886.32 310.277 5922.08 316.858 5957.72 325.765" stroke="url(#paint51_linear_2016_255)" stroke-opacity="0.3" stroke-width="0.552088" stroke-miterlimit="10"/>
<path d="M3062.37 567.447C3061.39 519.954 3182.73 523.14 3362.54 408.343C3373.32 401.467 3383.48 394.226 3393.93 387.318C3429.7 363.678 3465.71 340.828 3504.84 324.107C3621.1 274.441 3734.59 271.862 3867.89 282.812C3959.35 290.323 4060.37 308.91 4180.27 333.553C4216.74 341.048 4253.04 349.198 4289.52 357.185C4368.59 374.502 4452.99 391.816 4530.17 389.012C4608.31 386.167 4665.94 367.902 4724.88 352.558C4793.74 334.715 4868.81 316.909 4954.87 303.122C4984.92 298.333 5016.44 294.106 5048.96 290.728C5109.26 284.358 5173.39 280.243 5237.12 280.392C5313.49 280.583 5386.58 286.486 5454.88 289.244C5594.38 294.484 5715.97 289.552 5836.96 301.995C5873.08 305.701 5909.03 310.853 5944.99 318.393" stroke="url(#paint52_linear_2016_255)" stroke-opacity="0.3" stroke-width="0.552088" stroke-miterlimit="10"/>
<path d="M3057.2 561.149C3056.31 517.973 3180.33 527.759 3364.11 412.95C3374.87 406.225 3385.04 399.152 3395.45 392.394C3431.17 369.2 3466.75 346.682 3505.17 329.908C3619.18 279.681 3729.86 273.024 3863.3 281.77C3953.23 287.662 4053.47 304.705 4173.32 328.464C4209.47 335.632 4245.45 343.478 4281.59 351.213C4359.9 367.981 4442.99 384.974 4519.51 383.742C4596.96 382.486 4655.75 367.282 4715.75 354.63C4785.86 339.929 4861.67 325.123 4947.57 313.574C4977.57 309.566 5008.93 306.017 5041.2 303.178C5101.02 297.817 5164.42 294.193 5227.43 294.075C5302.92 293.943 5375.38 298.463 5443.17 299.485C5581.71 301.2 5702.35 291.263 5823.63 298.883C5859.84 301.149 5896 304.866 5932.27 311.051" stroke="url(#paint53_linear_2016_255)" stroke-opacity="0.3" stroke-width="0.552088" stroke-miterlimit="10"/>
<path d="M3052.02 554.857C3051.21 515.999 3177.88 532.343 3365.66 417.564C3376.41 410.995 3386.58 404.09 3396.95 397.477C3432.63 374.728 3467.85 352.595 3505.48 335.71C3617.38 285.082 3725.11 274.226 3858.68 280.729C3947.09 285.03 4046.54 300.513 4166.34 323.37C4202.19 330.211 4237.85 337.753 4273.65 345.236C4351.2 361.46 4432.99 378.127 4508.83 378.466C4585.6 378.799 4645.56 366.656 4706.62 356.696C4777.99 345.136 4854.52 333.331 4940.27 324.015C4970.23 320.782 5001.4 317.91 5033.44 315.616C5092.77 311.265 5155.46 308.132 5217.73 307.748C5292.34 307.292 5364.15 310.429 5431.44 309.715C5569.02 307.899 5688.71 292.963 5810.3 295.753C5846.6 296.579 5882.95 298.867 5919.54 303.685" stroke="url(#paint54_linear_2016_255)" stroke-opacity="0.3" stroke-width="0.552088" stroke-miterlimit="10"/>
<path d="M3046.84 548.558C3046.13 514.018 3175.41 536.876 3367.22 422.166C3377.96 415.748 3388.14 409.009 3398.46 402.547C3434.09 380.244 3468.93 358.495 3505.79 341.506C3615.6 290.483 3720.38 275.468 3854.08 279.675C3940.97 282.409 4039.63 296.308 4159.38 318.269C4194.92 324.783 4230.27 332.015 4265.71 339.252C4342.51 354.926 4422.99 371.274 4498.16 373.184C4574.25 375.112 4635.36 366.019 4697.5 358.756C4770.13 350.338 4847.38 341.533 4932.97 334.455C4962.88 332.003 4993.89 329.809 5025.68 328.06C5084.53 324.718 5146.49 322.082 5208.04 321.42C5281.77 320.635 5352.94 322.395 5419.72 319.944C5556.34 314.603 5675.08 294.662 5796.96 292.63C5833.35 292.015 5869.9 292.874 5906.81 296.326" stroke="url(#paint55_linear_2016_255)" stroke-opacity="0.3" stroke-width="0.552088" stroke-miterlimit="10"/>
<path d="M3041.66 542.26C3041.03 512.037 3172.88 541.368 3368.78 426.774C3379.5 420.5 3389.71 413.952 3399.97 407.623C3435.62 385.811 3470.03 364.4 3506.11 347.308C3613.82 295.889 3715.65 276.762 3849.47 278.633C3934.85 279.823 4032.72 292.132 4152.42 313.174C4187.64 319.367 4222.68 326.289 4257.77 333.274C4333.81 348.404 4412.99 364.426 4487.49 367.908C4562.89 371.424 4625.16 365.392 4688.37 360.822C4762.25 355.539 4840.24 349.741 4925.67 344.896C4955.53 343.224 4986.37 341.708 5017.91 340.498C5076.29 338.171 5137.52 336.02 5198.35 335.091C5271.2 333.983 5341.73 334.361 5408 330.179C5543.66 321.307 5661.45 296.367 5783.63 289.505C5820.12 287.451 5856.85 286.881 5894.09 288.966" stroke="url(#paint56_linear_2016_255)" stroke-opacity="0.3" stroke-width="0.552088" stroke-miterlimit="10"/>
<path d="M3036.49 535.967C3035.95 510.062 3170.33 545.82 3370.34 431.387C3381.05 425.263 3391.25 418.889 3401.48 412.7C3437.07 391.333 3471.12 370.312 3506.42 353.103C3612.03 301.289 3710.93 278.103 3844.86 277.579C3928.75 277.254 4025.8 287.944 4145.45 308.074C4180.36 313.945 4215.08 320.557 4249.83 327.284C4325.12 341.865 4402.98 357.573 4476.81 362.62C4551.53 367.725 4614.96 364.754 4679.24 362.876C4754.38 360.735 4833.09 357.938 4918.37 355.324C4948.18 354.428 4978.85 353.595 5010.15 352.925C5068.04 351.607 5128.56 349.952 5188.66 348.745C5260.62 347.315 5330.52 346.309 5396.28 340.391C5530.97 327.994 5647.82 298.049 5770.31 286.364C5806.88 282.87 5843.82 280.87 5881.36 281.594" stroke="url(#paint57_linear_2016_255)" stroke-opacity="0.3" stroke-width="0.552088" stroke-miterlimit="10"/>
<path d="M3031.3 529.668C3030.86 508.08 3167.73 550.22 3371.89 435.994C3382.58 430.015 3392.8 423.814 3402.99 417.775C3438.53 396.848 3472.21 376.217 3506.73 358.904C3610.24 306.695 3706.24 279.494 3840.26 276.536C3922.66 274.719 4018.88 283.779 4138.48 302.978C4173.08 308.533 4207.49 314.83 4241.89 321.305C4316.43 335.343 4392.99 350.724 4466.15 357.349C4540.18 364.043 4604.77 364.133 4670.11 364.947C4746.51 365.947 4825.94 366.151 4911.07 365.776C4940.83 365.66 4971.34 365.504 5002.39 365.374C5059.8 365.065 5119.59 363.901 5178.96 362.428C5250.04 360.668 5319.31 358.286 5384.55 350.632C5518.28 334.704 5634.18 299.753 5756.96 283.245C5793.62 278.311 5830.76 274.882 5868.63 274.24" stroke="url(#paint58_linear_2016_255)" stroke-opacity="0.3" stroke-width="0.552088" stroke-miterlimit="10"/>
<path d="M3026.13 523.376C3025.77 506.105 3165.1 554.575 3373.46 440.608C3384.13 434.773 3394.36 428.746 3404.5 422.858C3439.99 402.376 3473.3 382.129 3507.05 364.706C3608.45 312.095 3701.57 280.939 3835.65 275.495C3916.59 272.208 4011.96 279.621 4131.52 297.89C4165.8 303.129 4199.9 309.11 4233.95 315.334C4307.73 328.822 4382.98 343.883 4455.47 352.079C4528.82 360.367 4594.58 363.508 4660.99 367.019C4738.64 371.16 4818.81 374.365 4903.78 376.222C4933.48 376.887 4963.81 377.409 4994.64 377.818C5051.56 378.518 5110.62 377.845 5169.27 376.1C5239.48 374.017 5308.1 370.252 5372.84 360.867C5505.61 341.414 5620.56 301.458 5743.64 280.121C5780.39 273.747 5817.72 268.889 5855.91 266.88" stroke="url(#paint59_linear_2016_255)" stroke-opacity="0.3" stroke-width="0.552088" stroke-miterlimit="10"/>
<path d="M3020.95 517.078C3020.68 504.125 3162.43 558.872 3375.01 445.21C3385.67 439.514 3395.9 433.672 3406.01 427.928C3441.45 407.886 3474.39 388.03 3507.36 370.502C3606.66 317.496 3696.93 282.429 3831.03 274.442C3910.53 269.708 4005.03 275.463 4124.55 292.784C4158.52 297.707 4192.29 303.367 4226.01 309.344C4299.03 322.289 4372.98 337.024 4444.79 346.792C4517.45 356.669 4584.37 362.87 4651.85 369.073C4730.76 376.356 4811.65 382.562 4896.46 386.657C4926.11 388.098 4956.28 389.303 4986.86 390.256C5043.3 391.972 5101.64 391.79 5159.57 389.772C5228.89 387.36 5296.87 382.218 5361.12 371.097C5492.92 348.119 5606.92 303.158 5730.3 276.998C5767.14 269.183 5804.67 262.89 5843.18 259.521" stroke="url(#paint60_linear_2016_255)" stroke-opacity="0.3" stroke-width="0.552088" stroke-miterlimit="10"/>
<path d="M3015.77 510.778C3015.6 502.143 3159.73 563.117 3376.57 449.817C3387.2 444.26 3397.45 438.597 3407.51 433.004C3442.9 413.407 3475.48 393.941 3507.67 376.298C3604.88 322.896 3692.33 283.97 3826.43 273.393C3904.5 267.236 3998.12 271.321 4117.58 287.688C4151.24 292.302 4184.7 297.64 4218.07 303.366C4290.33 315.761 4362.97 330.176 4434.11 341.515C4506.1 352.981 4574.17 362.244 4642.72 371.139C4722.88 381.563 4804.51 390.769 4889.16 397.097C4918.76 399.318 4948.76 401.201 4979.1 402.694C5035.06 405.419 5092.67 405.727 5149.87 403.443C5218.31 400.708 5285.66 394.183 5349.39 381.326C5480.23 354.817 5593.28 304.857 5716.96 273.867C5753.9 264.613 5791.62 256.89 5830.44 252.16" stroke="url(#paint61_linear_2016_255)" stroke-opacity="0.3" stroke-width="0.552088" stroke-miterlimit="10"/>
<path d="M3010.6 504.485C3010.51 500.168 3156.99 567.31 3378.14 454.43C3388.75 449.012 3399.01 443.534 3409.04 438.085C3444.38 418.928 3476.59 399.852 3508 382.105C3603.1 328.308 3687.79 285.575 3821.84 272.35C3898.51 264.787 3991.18 267.295 4110.63 282.593C4143.97 286.926 4177.12 291.913 4210.14 297.387C4281.65 309.238 4352.99 323.328 4423.45 336.238C4494.75 349.299 4563.98 361.617 4633.61 373.204C4715.03 386.77 4797.38 398.976 4881.88 407.543C4911.43 410.545 4941.26 413.105 4971.35 415.137C5026.83 418.872 5083.72 419.671 5140.19 417.114C5207.75 414.056 5274.46 406.154 5337.69 391.56C5467.57 361.527 5579.67 306.561 5703.65 270.749C5740.67 260.054 5778.59 250.902 5817.73 244.806" stroke="url(#paint62_linear_2016_255)" stroke-opacity="0.3" stroke-width="0.552088" stroke-miterlimit="10"/>
<path d="M3005.42 498.187C3005.42 498.187 3154.21 571.446 3379.69 459.038C3605.17 346.63 3682.2 226.542 4103.66 277.499C4394.89 312.714 4670.04 402.245 4963.58 427.576C5084.35 437.997 5210.8 431.77 5325.95 401.79C5454.87 368.226 5566.02 308.261 5690.3 267.619C5727.42 255.485 5765.52 244.904 5804.99 237.44" stroke="url(#paint63_linear_2016_255)" stroke-opacity="0.3" stroke-width="0.552088" stroke-miterlimit="10"/>
<defs>
<linearGradient id="paint0_linear_2016_255" x1="2.41392" y1="337.776" x2="3037.58" y2="359.594" gradientUnits="userSpaceOnUse">
<stop stop-color="#F78CF8"/>
<stop offset="1" stop-color="#433EFC" stop-opacity="0.5"/>
</linearGradient>
<linearGradient id="paint1_linear_2016_255" x1="15.0595" y1="341.531" x2="3042.68" y2="363.295" gradientUnits="userSpaceOnUse">
<stop stop-color="#F78CF8"/>
<stop offset="1" stop-color="#433EFC" stop-opacity="0.5"/>
</linearGradient>
<linearGradient id="paint2_linear_2016_255" x1="27.7135" y1="345.299" x2="3047.78" y2="367.009" gradientUnits="userSpaceOnUse">
<stop stop-color="#F78CF8"/>
<stop offset="1" stop-color="#433EFC" stop-opacity="0.5"/>
</linearGradient>
<linearGradient id="paint3_linear_2016_255" x1="40.3919" y1="349.06" x2="3052.89" y2="370.715" gradientUnits="userSpaceOnUse">
<stop stop-color="#F78CF8"/>
<stop offset="1" stop-color="#433EFC" stop-opacity="0.5"/>
</linearGradient>
<linearGradient id="paint4_linear_2016_255" x1="53.0136" y1="352.822" x2="3057.99" y2="374.424" gradientUnits="userSpaceOnUse">
<stop stop-color="#F78CF8"/>
<stop offset="1" stop-color="#433EFC" stop-opacity="0.5"/>
</linearGradient>
<linearGradient id="paint5_linear_2016_255" x1="65.6671" y1="356.589" x2="3063.09" y2="378.136" gradientUnits="userSpaceOnUse">
<stop stop-color="#F78CF8"/>
<stop offset="1" stop-color="#433EFC" stop-opacity="0.5"/>
</linearGradient>
<linearGradient id="paint6_linear_2016_255" x1="78.3214" y1="360.339" x2="3068.19" y2="381.832" gradientUnits="userSpaceOnUse">
<stop stop-color="#F78CF8"/>
<stop offset="1" stop-color="#433EFC" stop-opacity="0.5"/>
</linearGradient>
<linearGradient id="paint7_linear_2016_255" x1="90.9588" y1="364.112" x2="3073.29" y2="385.551" gradientUnits="userSpaceOnUse">
<stop stop-color="#F78CF8"/>
<stop offset="1" stop-color="#433EFC" stop-opacity="0.5"/>
</linearGradient>
<linearGradient id="paint8_linear_2016_255" x1="103.605" y1="367.871" x2="3078.4" y2="389.255" gradientUnits="userSpaceOnUse">
<stop stop-color="#F78CF8"/>
<stop offset="1" stop-color="#433EFC" stop-opacity="0.5"/>
</linearGradient>
<linearGradient id="paint9_linear_2016_255" x1="116.267" y1="371.634" x2="3083.5" y2="392.964" gradientUnits="userSpaceOnUse">
<stop stop-color="#F78CF8"/>
<stop offset="1" stop-color="#433EFC" stop-opacity="0.5"/>
</linearGradient>
<linearGradient id="paint10_linear_2016_255" x1="128.888" y1="375.392" x2="3088.61" y2="396.668" gradientUnits="userSpaceOnUse">
<stop stop-color="#F78CF8"/>
<stop offset="1" stop-color="#433EFC" stop-opacity="0.5"/>
</linearGradient>
<linearGradient id="paint11_linear_2016_255" x1="141.567" y1="379.155" x2="3093.71" y2="400.376" gradientUnits="userSpaceOnUse">
<stop stop-color="#F78CF8"/>
<stop offset="1" stop-color="#433EFC" stop-opacity="0.5"/>
</linearGradient>
<linearGradient id="paint12_linear_2016_255" x1="154.221" y1="382.921" x2="3098.81" y2="404.089" gradientUnits="userSpaceOnUse">
<stop stop-color="#F78CF8"/>
<stop offset="1" stop-color="#433EFC" stop-opacity="0.5"/>
</linearGradient>
<linearGradient id="paint13_linear_2016_255" x1="166.85" y1="386.676" x2="3103.92" y2="407.789" gradientUnits="userSpaceOnUse">
<stop stop-color="#F78CF8"/>
<stop offset="1" stop-color="#433EFC" stop-opacity="0.5"/>
</linearGradient>
<linearGradient id="paint14_linear_2016_255" x1="179.488" y1="390.437" x2="3109.02" y2="411.496" gradientUnits="userSpaceOnUse">
<stop stop-color="#F78CF8"/>
<stop offset="1" stop-color="#433EFC" stop-opacity="0.5"/>
</linearGradient>
<linearGradient id="paint15_linear_2016_255" x1="192.15" y1="394.198" x2="3114.13" y2="415.203" gradientUnits="userSpaceOnUse">
<stop stop-color="#F78CF8"/>
<stop offset="1" stop-color="#433EFC" stop-opacity="0.5"/>
</linearGradient>
<linearGradient id="paint16_linear_2016_255" x1="204.788" y1="397.956" x2="3119.23" y2="418.907" gradientUnits="userSpaceOnUse">
<stop stop-color="#F78CF8"/>
<stop offset="1" stop-color="#433EFC" stop-opacity="0.5"/>
</linearGradient>
<linearGradient id="paint17_linear_2016_255" x1="217.45" y1="401.726" x2="3124.34" y2="422.622" gradientUnits="userSpaceOnUse">
<stop stop-color="#F78CF8"/>
<stop offset="1" stop-color="#433EFC" stop-opacity="0.5"/>
</linearGradient>
<linearGradient id="paint18_linear_2016_255" x1="230.08" y1="405.474" x2="3129.45" y2="426.316" gradientUnits="userSpaceOnUse">
<stop stop-color="#F78CF8"/>
<stop offset="1" stop-color="#433EFC" stop-opacity="0.5"/>
</linearGradient>
<linearGradient id="paint19_linear_2016_255" x1="242.747" y1="408.468" x2="3134.56" y2="429.256" gradientUnits="userSpaceOnUse">
<stop stop-color="#F78CF8"/>
<stop offset="1" stop-color="#433EFC" stop-opacity="0.5"/>
</linearGradient>
<linearGradient id="paint20_linear_2016_255" x1="255.444" y1="406.229" x2="3139.71" y2="426.962" gradientUnits="userSpaceOnUse">
<stop stop-color="#F78CF8"/>
<stop offset="1" stop-color="#433EFC" stop-opacity="0.5"/>
</linearGradient>
<linearGradient id="paint21_linear_2016_255" x1="268.127" y1="403.723" x2="3144.85" y2="424.402" gradientUnits="userSpaceOnUse">
<stop stop-color="#F78CF8"/>
<stop offset="1" stop-color="#433EFC" stop-opacity="0.5"/>
</linearGradient>
<linearGradient id="paint22_linear_2016_255" x1="280.828" y1="400.973" x2="3150.01" y2="421.598" gradientUnits="userSpaceOnUse">
<stop stop-color="#F78CF8"/>
<stop offset="1" stop-color="#433EFC" stop-opacity="0.5"/>
</linearGradient>
<linearGradient id="paint23_linear_2016_255" x1="293.522" y1="397.957" x2="3155.16" y2="418.527" gradientUnits="userSpaceOnUse">
<stop stop-color="#F78CF8"/>
<stop offset="1" stop-color="#433EFC" stop-opacity="0.5"/>
</linearGradient>
<linearGradient id="paint24_linear_2016_255" x1="306.218" y1="394.7" x2="3160.32" y2="415.216" gradientUnits="userSpaceOnUse">
<stop stop-color="#F78CF8"/>
<stop offset="1" stop-color="#433EFC" stop-opacity="0.5"/>
</linearGradient>
<linearGradient id="paint25_linear_2016_255" x1="318.916" y1="391.22" x2="3165.47" y2="411.682" gradientUnits="userSpaceOnUse">
<stop stop-color="#F78CF8"/>
<stop offset="1" stop-color="#433EFC" stop-opacity="0.5"/>
</linearGradient>
<linearGradient id="paint26_linear_2016_255" x1="331.623" y1="387.557" x2="3170.64" y2="407.965" gradientUnits="userSpaceOnUse">
<stop stop-color="#F78CF8"/>
<stop offset="1" stop-color="#433EFC" stop-opacity="0.5"/>
</linearGradient>
<linearGradient id="paint27_linear_2016_255" x1="344.316" y1="383.743" x2="3175.79" y2="404.097" gradientUnits="userSpaceOnUse">
<stop stop-color="#F78CF8"/>
<stop offset="1" stop-color="#433EFC" stop-opacity="0.5"/>
</linearGradient>
<linearGradient id="paint28_linear_2016_255" x1="357.016" y1="381.127" x2="3180.95" y2="401.426" gradientUnits="userSpaceOnUse">
<stop stop-color="#F78CF8"/>
<stop offset="1" stop-color="#433EFC" stop-opacity="0.5"/>
</linearGradient>
<linearGradient id="paint29_linear_2016_255" x1="369.718" y1="378.092" x2="3186.1" y2="398.338" gradientUnits="userSpaceOnUse">
<stop stop-color="#F78CF8"/>
<stop offset="1" stop-color="#433EFC" stop-opacity="0.5"/>
</linearGradient>
<linearGradient id="paint30_linear_2016_255" x1="382.406" y1="374.93" x2="3191.25" y2="395.121" gradientUnits="userSpaceOnUse">
<stop stop-color="#F78CF8"/>
<stop offset="1" stop-color="#433EFC" stop-opacity="0.5"/>
</linearGradient>
<linearGradient id="paint31_linear_2016_255" x1="395.109" y1="371.946" x2="3196.41" y2="392.083" gradientUnits="userSpaceOnUse">
<stop stop-color="#F78CF8"/>
<stop offset="1" stop-color="#433EFC" stop-opacity="0.5"/>
</linearGradient>
<linearGradient id="paint32_linear_2016_255" x1="6198.64" y1="335.776" x2="3163.48" y2="357.594" gradientUnits="userSpaceOnUse">
<stop stop-color="#F78CF8"/>
<stop offset="1" stop-color="#433EFC" stop-opacity="0.5"/>
</linearGradient>
<linearGradient id="paint33_linear_2016_255" x1="6185.99" y1="339.531" x2="3158.37" y2="361.295" gradientUnits="userSpaceOnUse">
<stop stop-color="#F78CF8"/>
<stop offset="1" stop-color="#433EFC" stop-opacity="0.5"/>
</linearGradient>
<linearGradient id="paint34_linear_2016_255" x1="6173.34" y1="343.299" x2="3153.27" y2="365.009" gradientUnits="userSpaceOnUse">
<stop stop-color="#F78CF8"/>
<stop offset="1" stop-color="#433EFC" stop-opacity="0.5"/>
</linearGradient>
<linearGradient id="paint35_linear_2016_255" x1="6160.66" y1="347.06" x2="3148.16" y2="368.715" gradientUnits="userSpaceOnUse">
<stop stop-color="#F78CF8"/>
<stop offset="1" stop-color="#433EFC" stop-opacity="0.5"/>
</linearGradient>
<linearGradient id="paint36_linear_2016_255" x1="6148.04" y1="350.822" x2="3143.06" y2="372.424" gradientUnits="userSpaceOnUse">
<stop stop-color="#F78CF8"/>
<stop offset="1" stop-color="#433EFC" stop-opacity="0.5"/>
</linearGradient>
<linearGradient id="paint37_linear_2016_255" x1="6135.39" y1="354.589" x2="3137.97" y2="376.136" gradientUnits="userSpaceOnUse">
<stop stop-color="#F78CF8"/>
<stop offset="1" stop-color="#433EFC" stop-opacity="0.5"/>
</linearGradient>
<linearGradient id="paint38_linear_2016_255" x1="6122.73" y1="358.339" x2="3132.86" y2="379.832" gradientUnits="userSpaceOnUse">
<stop stop-color="#F78CF8"/>
<stop offset="1" stop-color="#433EFC" stop-opacity="0.5"/>
</linearGradient>
<linearGradient id="paint39_linear_2016_255" x1="6110.09" y1="362.112" x2="3127.76" y2="383.551" gradientUnits="userSpaceOnUse">
<stop stop-color="#F78CF8"/>
<stop offset="1" stop-color="#433EFC" stop-opacity="0.5"/>
</linearGradient>
<linearGradient id="paint40_linear_2016_255" x1="6097.45" y1="365.871" x2="3122.65" y2="387.255" gradientUnits="userSpaceOnUse">
<stop stop-color="#F78CF8"/>
<stop offset="1" stop-color="#433EFC" stop-opacity="0.5"/>
</linearGradient>
<linearGradient id="paint41_linear_2016_255" x1="6084.79" y1="369.634" x2="3117.55" y2="390.964" gradientUnits="userSpaceOnUse">
<stop stop-color="#F78CF8"/>
<stop offset="1" stop-color="#433EFC" stop-opacity="0.5"/>
</linearGradient>
<linearGradient id="paint42_linear_2016_255" x1="6072.16" y1="373.392" x2="3112.44" y2="394.668" gradientUnits="userSpaceOnUse">
<stop stop-color="#F78CF8"/>
<stop offset="1" stop-color="#433EFC" stop-opacity="0.5"/>
</linearGradient>
<linearGradient id="paint43_linear_2016_255" x1="6059.49" y1="377.155" x2="3107.34" y2="398.376" gradientUnits="userSpaceOnUse">
<stop stop-color="#F78CF8"/>
<stop offset="1" stop-color="#433EFC" stop-opacity="0.5"/>
</linearGradient>
<linearGradient id="paint44_linear_2016_255" x1="6046.83" y1="380.921" x2="3102.24" y2="402.089" gradientUnits="userSpaceOnUse">
<stop stop-color="#F78CF8"/>
<stop offset="1" stop-color="#433EFC" stop-opacity="0.5"/>
</linearGradient>
<linearGradient id="paint45_linear_2016_255" x1="6034.2" y1="384.676" x2="3097.13" y2="405.789" gradientUnits="userSpaceOnUse">
<stop stop-color="#F78CF8"/>
<stop offset="1" stop-color="#433EFC" stop-opacity="0.5"/>
</linearGradient>
<linearGradient id="paint46_linear_2016_255" x1="6021.56" y1="388.437" x2="3092.03" y2="409.496" gradientUnits="userSpaceOnUse">
<stop stop-color="#F78CF8"/>
<stop offset="1" stop-color="#433EFC" stop-opacity="0.5"/>
</linearGradient>
<linearGradient id="paint47_linear_2016_255" x1="6008.9" y1="392.198" x2="3086.92" y2="413.203" gradientUnits="userSpaceOnUse">
<stop stop-color="#F78CF8"/>
<stop offset="1" stop-color="#433EFC" stop-opacity="0.5"/>
</linearGradient>
<linearGradient id="paint48_linear_2016_255" x1="5996.26" y1="395.956" x2="3081.82" y2="416.907" gradientUnits="userSpaceOnUse">
<stop stop-color="#F78CF8"/>
<stop offset="1" stop-color="#433EFC" stop-opacity="0.5"/>
</linearGradient>
<linearGradient id="paint49_linear_2016_255" x1="5983.6" y1="399.726" x2="3076.71" y2="420.622" gradientUnits="userSpaceOnUse">
<stop stop-color="#F78CF8"/>
<stop offset="1" stop-color="#433EFC" stop-opacity="0.5"/>
</linearGradient>
<linearGradient id="paint50_linear_2016_255" x1="5970.97" y1="403.474" x2="3071.61" y2="424.316" gradientUnits="userSpaceOnUse">
<stop stop-color="#F78CF8"/>
<stop offset="1" stop-color="#433EFC" stop-opacity="0.5"/>
</linearGradient>
<linearGradient id="paint51_linear_2016_255" x1="5958.3" y1="406.468" x2="3066.49" y2="427.256" gradientUnits="userSpaceOnUse">
<stop stop-color="#F78CF8"/>
<stop offset="1" stop-color="#433EFC" stop-opacity="0.5"/>
</linearGradient>
<linearGradient id="paint52_linear_2016_255" x1="5945.61" y1="404.229" x2="3061.35" y2="424.962" gradientUnits="userSpaceOnUse">
<stop stop-color="#F78CF8"/>
<stop offset="1" stop-color="#433EFC" stop-opacity="0.5"/>
</linearGradient>
<linearGradient id="paint53_linear_2016_255" x1="5932.93" y1="401.723" x2="3056.2" y2="422.402" gradientUnits="userSpaceOnUse">
<stop stop-color="#F78CF8"/>
<stop offset="1" stop-color="#433EFC" stop-opacity="0.5"/>
</linearGradient>
<linearGradient id="paint54_linear_2016_255" x1="5920.22" y1="398.973" x2="3051.04" y2="419.598" gradientUnits="userSpaceOnUse">
<stop stop-color="#F78CF8"/>
<stop offset="1" stop-color="#433EFC" stop-opacity="0.5"/>
</linearGradient>
<linearGradient id="paint55_linear_2016_255" x1="5907.53" y1="395.957" x2="3045.89" y2="416.527" gradientUnits="userSpaceOnUse">
<stop stop-color="#F78CF8"/>
<stop offset="1" stop-color="#433EFC" stop-opacity="0.5"/>
</linearGradient>
<linearGradient id="paint56_linear_2016_255" x1="5894.83" y1="392.7" x2="3040.73" y2="413.216" gradientUnits="userSpaceOnUse">
<stop stop-color="#F78CF8"/>
<stop offset="1" stop-color="#433EFC" stop-opacity="0.5"/>
</linearGradient>
<linearGradient id="paint57_linear_2016_255" x1="5882.14" y1="389.22" x2="3035.58" y2="409.682" gradientUnits="userSpaceOnUse">
<stop stop-color="#F78CF8"/>
<stop offset="1" stop-color="#433EFC" stop-opacity="0.5"/>
</linearGradient>
<linearGradient id="paint58_linear_2016_255" x1="5869.43" y1="385.557" x2="3030.41" y2="405.965" gradientUnits="userSpaceOnUse">
<stop stop-color="#F78CF8"/>
<stop offset="1" stop-color="#433EFC" stop-opacity="0.5"/>
</linearGradient>
<linearGradient id="paint59_linear_2016_255" x1="5856.74" y1="381.743" x2="3025.26" y2="402.097" gradientUnits="userSpaceOnUse">
<stop stop-color="#F78CF8"/>
<stop offset="1" stop-color="#433EFC" stop-opacity="0.5"/>
</linearGradient>
<linearGradient id="paint60_linear_2016_255" x1="5844.04" y1="379.127" x2="3020.1" y2="399.426" gradientUnits="userSpaceOnUse">
<stop stop-color="#F78CF8"/>
<stop offset="1" stop-color="#433EFC" stop-opacity="0.5"/>
</linearGradient>
<linearGradient id="paint61_linear_2016_255" x1="5831.33" y1="376.092" x2="3014.95" y2="396.338" gradientUnits="userSpaceOnUse">
<stop stop-color="#F78CF8"/>
<stop offset="1" stop-color="#433EFC" stop-opacity="0.5"/>
</linearGradient>
<linearGradient id="paint62_linear_2016_255" x1="5818.65" y1="372.93" x2="3009.8" y2="393.121" gradientUnits="userSpaceOnUse">
<stop stop-color="#F78CF8"/>
<stop offset="1" stop-color="#433EFC" stop-opacity="0.5"/>
</linearGradient>
<linearGradient id="paint63_linear_2016_255" x1="5805.94" y1="369.946" x2="3004.64" y2="390.083" gradientUnits="userSpaceOnUse">
<stop stop-color="#F78CF8"/>
<stop offset="1" stop-color="#433EFC" stop-opacity="0.5"/>
</linearGradient>
</defs>
</svg>
