<svg width="10018" height="10828" viewBox="0 0 10018 10828" fill="none" xmlns="http://www.w3.org/2000/svg">
<path d="M3439.7 7249.81L5124.81 2594.04H5310.11L3625 7249.81H3439.7ZM2628.99 7249.81L4314.1 2594.04H4493.61L2814.3 7249.81H2628.99ZM3034.35 7249.81L4713.66 2594.04H4904.76L3219.65 7249.81H3034.35ZM6833.08 7249.81L5321.69 3074.68L5414.34 2814.09L7018.38 7249.81H6833.08ZM6427.73 7249.81L5124.81 3642.17L5211.67 3375.79L6613.03 7249.81H6427.73ZM6022.37 7249.81L4922.13 4203.87L5014.78 3943.29L6207.68 7249.81H6022.37ZM4383.59 5709.47L4447.29 5535.74H5211.67L5275.37 5709.47H4383.59ZM4244.61 6097.45L4308.31 5923.73H5350.65L5414.34 6097.45H4244.61ZM4105.63 6479.64L4169.33 6305.91H5489.62L5553.32 6479.64H4105.63Z" fill="white"/>
<path d="M7100.81 8783.39C6762.63 8903.93 6443.97 8935.55 6144.85 8878.23C5848.07 8815.98 5587.69 8683.38 5363.71 8480.42C5143.36 8276.17 4979.4 8023.14 4871.82 7721.31L4830.99 7606.77L4994.63 7548.44L5035.46 7662.99C5132.67 7935.72 5279.64 8164.07 5476.36 8348.05C5676.73 8530.74 5909.98 8650.47 6176.12 8707.24C6444.6 8759.09 6733.39 8729.93 7042.49 8619.75C7351.58 8509.58 7591.89 8350.15 7763.41 8141.47C7937.28 7927.86 8042.21 7687.59 8078.21 7420.65C8117.85 7152.42 8089.07 6881.94 7991.85 6609.21L6986.68 3789.18L7150.32 3730.85L8155.49 6550.88C8263.07 6852.71 8294.31 7153.05 8249.19 7451.92C8207.72 7749.5 8091.73 8016.25 7901.24 8252.18C7709.44 8484.48 7442.64 8661.55 7100.81 8783.39ZM6844.17 8063.38C6636.9 8137.26 6449.26 8157.01 6281.27 8122.63C6116.91 8086.95 5975.56 8012.33 5857.21 7898.77C5741.21 7780.29 5652.75 7635.59 5591.83 7464.67L5551 7350.13L5714.64 7291.8L5755.46 7406.35C5830.64 7617.26 5954.8 7775.87 6127.95 7882.19C6301.09 7988.51 6520.39 7994.36 6785.85 7899.74C7051.31 7805.12 7217.46 7661.88 7284.32 7470.02C7351.18 7278.15 7347.02 7076.76 7271.85 6865.85L6266.68 4045.82L6430.31 3987.49L7435.48 6807.52C7496.4 6978.43 7517.59 7147.11 7499.05 7313.56C7482.85 7475.07 7420.56 7622.28 7312.19 7755.17C7207.46 7886.76 7051.45 7989.5 6844.17 8063.38ZM6972.49 8423.39C6699.76 8520.6 6446.3 8545.37 6212.09 8497.7C5981.52 8448.74 5780.98 8346.04 5610.46 8189.6C5442.28 8028.23 5316.07 7829.36 5231.82 7592.99L5190.99 7478.45L5354.63 7420.12L5395.46 7534.67C5469.34 7741.94 5578.56 7916.13 5723.12 8057.23C5870.01 8193.4 6045.25 8282.58 6248.81 8324.77C6452.38 8366.97 6674.16 8345.29 6914.17 8259.75C7157.81 8172.91 7343.3 8049.41 7470.64 7889.26C7601.63 7727.82 7679.13 7548.56 7703.14 7351.47C7729.49 7149.45 7705.73 6944.81 7631.85 6737.53L6626.68 3917.5L6790.32 3859.17L7795.49 6679.2C7879.74 6915.57 7905.95 7150.08 7874.12 7382.74C7844.64 7610.47 7754.27 7816.86 7603.01 8001.92C7455.4 8185.69 7245.22 8326.17 6972.49 8423.39Z" fill="white"/>
<path d="M2692.77 9308.42L4285.13 4933.44L4448.38 4992.85L2856.01 9367.84L2692.77 9308.42ZM1974.49 9046.99L3566.85 4672L3730.1 4731.42L2137.73 9106.41L1974.49 9046.99ZM2333.63 9177.71L3925.99 4802.72L4089.24 4862.14L2496.87 9237.12L2333.63 9177.71Z" fill="white"/>
<path d="M7730.66 5874.91L6151.35 1495.2L6314.77 1436.27L7894.08 5815.98L7730.66 5874.91ZM7011.6 6134.2L5432.29 1754.49L5595.71 1695.56L7175.03 6075.27L7011.6 6134.2ZM7371.13 6004.56L5791.82 1624.84L5955.24 1565.91L7534.56 5945.63L7371.13 6004.56Z" fill="white"/>
</svg>
